<?xml version="1.0" standalone="no"?>
<!DOCTYPE svg PUBLIC "-//W3C//DTD SVG 20010904//EN"
 "http://www.w3.org/TR/2001/REC-SVG-20010904/DTD/svg10.dtd">
<svg version="1.0" xmlns="http://www.w3.org/2000/svg"
 width="300.000000pt" height="300.000000pt" viewBox="0 0 300.000000 300.000000"
 preserveAspectRatio="xMidYMid meet">
<metadata>
Created by potrace 1.11, written by Peter Selinger 2001-2013
</metadata>
<g transform="translate(0.000000,300.000000) scale(0.100000,-0.100000)"
fill="#000000" stroke="none">
<path d="M1398 2429 c-10 -10 -15 -19 -12 -19 15 0 -44 -38 -82 -53 -52 -20
-95 -26 -219 -32 -55 -2 -116 -9 -135 -15 -19 -6 -48 -14 -65 -17 -16 -3 -43
-12 -60 -21 -16 -9 -32 -17 -35 -17 -35 -6 -151 -70 -158 -87 -2 -4 -10 -8
-19 -8 -19 0 -223 -206 -223 -226 0 -8 -5 -14 -11 -14 -5 0 -7 -4 -4 -10 3 -5
2 -10 -2 -10 -9 0 -46 -63 -45 -77 0 -4 -5 -15 -12 -23 -13 -14 -50 -114 -51
-135 0 -5 -4 -15 -7 -21 -32 -50 -29 -440 3 -452 5 -2 7 -8 4 -12 -10 -16 72
-210 88 -210 5 0 5 -5 2 -10 -3 -6 1 -13 9 -16 9 -3 13 -10 10 -15 -3 -5 0 -9
5 -9 6 0 11 -7 11 -15 0 -7 8 -19 18 -24 9 -6 13 -11 9 -11 -18 0 147 -165
191 -190 14 -8 35 -23 46 -32 10 -10 23 -15 28 -12 4 3 8 2 8 -3 0 -16 194
-98 210 -88 4 3 10 0 12 -5 2 -6 19 -12 39 -14 20 -2 40 -5 45 -8 10 -5 70
-10 144 -12 42 -1 96 5 180 20 19 3 41 6 48 7 6 0 12 4 12 8 0 5 7 6 15 3 8
-4 15 -2 15 3 0 5 9 9 21 10 29 3 189 82 189 94 0 6 4 8 9 4 5 -3 13 0 17 6
13 22 21 -11 19 -81 -2 -58 1 -70 14 -71 92 -6 321 -2 322 6 0 6 1 153 2 328
0 201 4 317 10 317 6 0 7 3 4 6 -4 4 3 20 14 35 11 16 17 29 13 29 -6 0 32 31
81 67 12 9 26 13 70 19 36 5 135 -16 135 -28 0 -5 4 -7 8 -4 5 3 14 -4 22 -14
8 -10 18 -16 24 -13 6 3 8 2 3 -2 -4 -5 2 -18 13 -30 11 -12 22 -30 24 -41 2
-10 8 -32 12 -49 4 -16 7 -165 7 -330 l0 -300 156 1 c86 1 161 2 167 3 18 2
15 640 -4 716 -8 33 -19 63 -24 66 -5 3 -8 10 -7 15 4 15 -17 57 -39 80 -12
12 -19 24 -16 26 2 3 -25 36 -61 74 -36 38 -65 65 -65 60 0 -5 -10 0 -22 11
-19 17 -108 64 -128 68 -3 0 -22 7 -43 14 -21 7 -44 10 -52 7 -8 -3 -16 -2
-19 3 -4 6 -131 8 -131 1 0 -1 -18 -4 -40 -6 -22 -3 -52 -11 -66 -18 -15 -8
-31 -11 -37 -7 -5 3 -9 101 -10 241 0 309 1 296 -19 316 -10 10 -17 19 -15 21
2 3 -19 21 -45 42 -68 52 -142 82 -218 86 l-41 3 1 -452 1 -451 35 -72 c28
-57 33 -74 23 -87 -6 -9 -16 -16 -22 -16 -6 0 -19 -10 -29 -23 -10 -13 -30
-31 -45 -41 -15 -10 -25 -23 -21 -29 3 -6 1 -7 -5 -3 -10 6 -100 -65 -130
-103 -7 -9 -16 -16 -20 -16 -4 0 -6 -4 -4 -8 1 -5 -2 -6 -6 -3 -5 3 -17 -3
-27 -14 -10 -11 -22 -17 -26 -14 -5 3 -9 0 -9 -5 0 -6 -7 -11 -15 -11 -8 0
-15 -5 -15 -12 0 -6 -3 -8 -6 -5 -4 3 -16 1 -28 -5 -11 -7 -25 -13 -31 -14 -5
-1 -28 -6 -50 -11 -47 -11 -124 -10 -180 2 -22 5 -43 9 -47 9 -4 1 -13 7 -19
14 -7 6 -19 12 -27 12 -16 0 -65 32 -105 68 -15 14 -27 23 -27 19 0 -3 -15 9
-34 28 -19 18 -37 31 -40 28 -3 -4 -6 -1 -6 4 0 6 -40 44 -90 84 -80 65 -89
75 -83 98 3 14 9 28 12 31 11 9 44 80 44 95 0 8 4 15 9 15 5 0 6 5 3 10 -3 6
-2 10 2 10 5 0 30 42 57 94 36 71 46 98 39 112 -10 20 -9 121 1 162 17 72 35
83 93 56 21 -10 40 -20 43 -23 3 -4 28 -25 56 -48 l51 -42 167 1 c166 0 168 1
194 26 15 14 20 22 12 17 -8 -5 -3 3 12 17 107 102 143 373 75 574 -14 44 -26
49 -49 23z"/>
</g>
</svg>
